<?xml version='1.0' encoding='utf-8'?>
<svg xmlns="http://www.w3.org/2000/svg" width="1117px" height="799px" version="1.1" viewBox="-51 610 1117 799"> <g fill="#44c5e5"> <path d="m-51.001 608.76c-0.32951 0-0.64537 0.13067-0.87857 0.3639-0.23294 0.23295-0.36388 0.5489-0.36388 0.8785l9.99e-4 799c0 0.6859 0.55631 1.2424 1.2424 1.2424l1117 1e-3c0.2084 0 0.4107-0.0521 0.5907-0.1493l3e-4 -2e-4c0.1053-0.0569 0.2012-0.1278 0.2876-0.2143 0.2331-0.233 0.3638-0.5495 0.3638-0.8786l-1e-3 -799c0-0.6862-0.5562-1.2424-1.2424-1.2424l-1117-9.7e-4z"/> </g> <g> <g fill="#feba9b"> <path d="m406.23 1298.8v0.0012q10.239 5.6557 14.297 6.7976 3.3923 0.9883 4.0171 0.9956 1.2678 0.2825 7.5317 0.6829 1.6405 0.333 1.6198 0.5488l0.23084 0.3284q0.14209 0.3813-0.047 0.925-0.39819 1.1206-1.8915 2.4895-2.2873 2.137-6.1649 3.3191-2.8107 0.7756-6.8301 0.6116-4.1191-0.1707-11.169-1.4461-10.594 0.4324-14.481 0.2613-6.3837-0.3377-7.2036-0.6546-4.2791-0.7207-6.2716-2.6887l-0.7926-1.0967q-0.62012-1.1897-0.66944-2.6911-0.1726-5.2535 6.4135-17.253l21.411 8.8689z"/> <path d="m411.49 1291.4 1.4598 0.7959q8.0492 4.4641 12.837 6.0034 1.3699 0.4477 2.7006 0.7424 0.25572 0.0676 1.4871 0.2796 1.2888 0.2731 6.8867 0.5988 1.3851 0.1692 1.6776 0.3513 1.8463 1.0186-1.2902 3.9974-2.035 1.6421-2.6849 1.8986-1.0459 0.5833-2.248 1.0279-2.0463 0.8215-5.514 1.0093-4.852 0.1992-13.717-1.4515l-15.999-0.4282 14.405-14.825z"/> <path d="m432.2 1266.7v4e-4 -4e-4 4e-4z"/> </g> <g fill-opacity=".99608"> <path d="m376.75 1310.2 0.44165-2.6831c2.0514-12.549 2.9371-23.27 2.8853-32.164-0.00683-1.1673 0.08093-5.7176-0.27906-13.644-1.0087-22.208-1.5911-33.963-1.6211-35.28-0.14448-6.3859-0.09222-11.863 0.16644-16.45 0.07605-1.3465 0.39758-4.3194 1.1462-8.9139l4.1223-17.295c0.23425-0.7148 0.73938-3.8588 1.4872-9.435 1.1677-8.6969 1.8205-20.056 1.3624-34.06-0.36903-11.294-1.9003-20.056-3.9708-26.312l-1.7747-5.9287c-5.1957-7.7221-8.4609-13.923-10.11-18.496-1.6288-4.5134-3.2784-11.936-4.6366-22.384 18.375-43.742 37.158-46.408 37.158-46.408 18.036-2.5596 36.51 35.954 36.51 35.954 1.2828 18.548 2.0409 31.095 2.2741 37.641l0.51696 12.937c-2.1915 28.912-4.3095 50.672-6.6372 65.238-2.7324 17.104-6.9893 31.04-12.488 41.858-2.3025 26.087-3.5845 43.539-4.0757 52.341-0.36634 6.5681-0.25403 14.578 0.24273 24.064 0.1117 2.1357-0.11877 3.7065-0.44458 4.6792-0.57935 1.7287-1.5524 2.6347-2.7002 3.1274-1.2014 0.5169-3.9857 1.0559-8.5335 1.2532l-3.0114-38.032 3.4489 40.56c-4.7522 5.8628-8.9986 8.8386-12.54 9.7986-3.0601 0.8286-9.282 0.457-18.939-1.9646z"/> <path d="m409.53 1142v0.0012-0.0012z"/> <path d="m415.33 1291.3v0.0024l17.704 5.1629q1.5956 0.3721 3.0841 0.802 0.7378 0.2192 1.4091 0.4748 3.5498 1.1685 3.7089 4.1983 0.22998 1.1206-0.81872 5.436l-34.99-5.4887 9.9034-10.588z"/> <path d="m412.17 1291.2 0.79151 0.8171q5.5476 5.7063 9.226 7.1406 2.0465 0.9468 4.2672 1.479 1.2664 0.3071 2.6067 0.5488 8.7811 1.3816 9.0807 1.6021 3.001 0.7544 4.2242 1.8752 1.7463 1.1521 1.167 4.7845-0.93055 3.3781-4.4478 5.9555-3.8614 3.0052-13.7 2.9822-0.86757 0.031-5.4804-0.1584l-31.408-1.4524q-3.8822 0.2544-5.81 0.1164-4.2438-0.3598-5.5741-2.041-1.8789-1.8459-1.6432-6.9421-0.1372-2.9275 2.709-15.682l10.578 8.0869 23.413-9.1125z"/> <path d="m426.97 1296.7v0.0013-0.0013z"/> </g> <g fill="#fff"> <path d="m503.73 939.27 0.57471-0.54734q9.0262-8.2117 12.614-16.253 1.297-3.1009 2.0034-6.6385 0.62365-2.9221 1.3408-8.4807l0.67407-3.4116q2.7011 0.1924 3.1687-0.4087 0.82312-1.6462-0.94788-3.3989 1.6559 0.3274 2.0526-0.77444 0.0594-0.68236-0.5426-1.2776-0.5055-0.6375-3.0708-2.5376l0.4503-1.2088q1.4734-1.5205 1.7115-2.0835 0.32726-0.59764-0.01454-1.3987 1.7227 4.2373 3.068 4.7219 0.9844 0.44066 1.9698 0.0039 0.96315-0.4475 0.9773-1.4736 0.10901-1.2593-3.8225-4.9998 1.9432-1.5038 0.85026-2.7501-1.0593-1.0291-4.7483-2.6394-1.7485-1.3833-2.6152-1.8511-1.4616-0.7615-1.8359-0.8262-3.2617-1.0588-7.8056 0.31424-5.1689 1.7793-7.1568 3.957-1.4215 1.0708-2.7214 4.5768-0.84228 1.9536-0.8916 9.0437-1.4818 1.6782-1.8115 2.8868-0.40319 1.1426-0.38733 4.1645l-4.963 2.438 4.3858 7.4241-7.3545 12.532 14.848 10.897"/> </g> <g fill="#ffbca5"> <path d="m492.38 908.08 3.6373 5.5019 0.00695 8.5962-3.7912 4.4092q6.6075 1.0046 8.413 2.1435 1.8721 0.59936 7.984 5.6087-19.642 24.822-24.299 29.135l-67.795 0.0656-4.3665-8.4134 51.518-31.935 1.9327 2.2773q10.099-5.4277 15.646-8.7209 6.1235-3.6509 11.114-8.6682z"/> </g> <g> <path d="m478.67 824.26 0.89136-0.4487q6.0995-2.8313 6.996-5.7154 1.0337-2.4975-3.4336-9.3078-16.702-11.126-23.846-12.881-7.6116-2.5216-15.408 1.2472-6.531 3.8254-10.472 8.968-6.5598 8.6116-8.4663 15.009-2.4403 7.2842-2.6807 15.265-0.32924 6.6096 0.58862 18.982l55.831-31.118"/> </g> <g fill="#ffbca5"> <path d="m443.45 885.89 0.19618-0.45703q1.0756-2.5627 1.8174-3.4853l0.65039-0.61403q2.3596-0.61277 3.1415-1.5491 1.4233-1.4971 3.845-5.709 15.363-1.1227 24.59-13.756 2.1035-3.4441 2.2869-6.968 0.39221-2.0164-0.83008-10.091 0.07813-0.5918 0.43995-1.4514l2.1582-4.7071q0.88818-2.6711 0.90063-4.1008 0.23663-4.0873-1.2956-11.113l-11.902-4.645-4.4676 5.0532 0.95055 4.6084-5.7898 4.2423-3.0161 7.5102-8.8292 0.10352 1.3824-9.1388q-4.7589-3.5415-7.1104-1.8711-3.4626 2.2385-8.3475 14.028l-7.7623 8.217-3.9243-0.2251q-3.7999 7.5064-5.5907 9.6282-1.8101 2.4128-5.2119 3.9761l31.719 22.515"/> </g> <g fill="#fff"> <path d="m412.94 859.44v0.0022 0.0027l5.3099 4.04c16.82 12.694 27.386 22.561 31.568 29.678 2.0284 3.4524 3.1534 6.9743 3.5042 10.49l12.901 21.805c-2.1064-1.4834-3.9027 0.22485-5.3884 5.1245l3.5596 18.738-12.192 4.2407 19.5 126.94-28.178-1.4498-85.739 11.17c-0.39038-12.901 9.9134-154.66 11.948-171.95 1.0839-9.2114 3.3362-17.333 6.1554-24.52 2.444-6.2323 7.0301-12.7 14.184-19.144 5.1287-4.6201 12.796-9.6265 22.869-15.17v0.0022-0.0022z"/> <path d="m451.51 865.67 1.113 0.15867q3.4047 0.56716 6.2166 0.30874 2.1771-0.44724 2.4413-0.77539 0.70545-0.40915 1.2296-1.0713 0.51855-0.66992 0.85632-1.5921 0.25708-0.3374 0.68725-3.22 0.35181-2.9912-0.02941-9.789l16.787-1.6455q-0.20997 7.6596-0.62671 10.656-0.45093 4.0872-1.7031 7.4724-1.8708 5.084-6.5742 7.6873-3.1307 1.7397-7.0627 2.7776-2.8701 0.84715-10.33 2.1561l-3.0048-13.124"/> <path d="m468.44 850.72v2.6e-4q-18.242-21.414-36.483-42.828-1.3102 2.0203-2.6205 4.0403 18.346 20.359 36.691 40.717l2.4127-1.9302"/> <path d="m454.56 866.91-32.265-16.689q-0.85766 1.6277-1.7153 3.2554 17.384 8.6245 34.768 17.248l-0.78821-3.8144"/> </g> <g fill="#ffc4af"> <path d="m448.26 839.03 0.26416-0.7688q0.84534-2.3196 1.2206-4.5344 0.22839-1.4714-0.0133-2.8384-0.24446-1.547-1.5617-3.1232-0.63147-0.70385-1.4005-1.1494l-0.38758-0.19898q-0.40381-0.18213-0.7832-0.26636-0.98146-0.2334-1.9646 0.1494l-0.59766 0.31154q-0.5919 0.37816-1.1643 0.98071-2.003 2.1076-4.9141 8.1076l11.302 3.3303"/> </g> <g fill="#fdf1ec"> <path d="m454.64 810.18h-1.3e-4 1.3e-4"/> </g> <g fill="#ffc4af"> <path d="m478.19 873.2h-2.4e-4 -1.3e-4 3.7e-4"/> </g> <g fill="#6d6d6d"> <path d="m508.9 887.11v2.4e-4l-0.04138 0.97316q-1.5975-0.2864-3.1952-0.57277l3.2366-0.40063"/> <path d="m540.98 890.88-5.3298-1.4243-14.913-1.2089-12.411-1.2055 0.26038 1.4853 9.5853 1.016q1.9284-0.2229 2.8958-0.1306 1.1328 0.1465 1.8328 0.9133 3.9482 0.583 6.7943 0.77174 1.6443 0.12623 5.9941 0.31396l5.2905-0.531"/> <path d="m525.09 898.96-0.23424-0.6116q0.10314-0.05615-0.39234-0.48096-0.39856-0.35424-2.2913-1.8586l3.4352-0.1362 12.918 0.44186 0.61084 1.8074-13.251-0.09009-0.79526 0.92825"/> </g> <g fill="#4caf50"> <path d="m512.98 946.54v5e-4 -5e-4"/> </g> <g fill="#ffbca5"> <path d="m483.53 962.42-1.7548 1.938q-9.6106 10.866-16.348 14.702-7.4039 4.2504-15.402 3.0512-0.67444-0.0083-3.92-0.8899-2.5834-0.8042-5.0031-2.1336-3.5718-1.9441-6.8174-5.189-4.9629-4.4278-13.605-19.93l34.711-3.9356 28.139 12.387"/> </g> <g fill-opacity=".99608"> <path d="m469.9 840 0.407-0.1013q2.674-0.7195 4.2576-0.53884 0.35095 0.04394 0.6842 0.13159 0.17493 0.02245 0.96777 0.34275 0.78589 0.3394 2.1024 1.1975-2.3359-0.54664-3.7617-0.70924-1.3807-0.1814-4.6572-0.3225z"/> <path d="m469.86 846.84-8.5e-4 7.5e-4 -6.1e-4 2.5e-4 0.00146-1e-3z"/> </g> <g fill="#fff" fill-opacity=".99608"> <path d="m470.88 843.15-3.6e-4 2.7e-4 4.8285-0.99147q0.32507 0.91163 0.25353 1.4441-0.02965 0.5181-0.55773 1.7068l-4.5239-2.1597z"/> </g> <g fill-opacity=".99608"> <path d="m475.69 842.12-1.4449 1.324 1.0726 1.7698q0.40905-0.5935 0.56604-0.92041 0.14807-0.32615 0.156-0.39065 0.03845-0.1291 0.05396-0.25925 0.01537-0.12795 0.00854-0.2561 0.0072-0.06421-0.06347-0.38282-0.07935-0.31713-0.34876-0.88453z"/> </g> <g fill="#6d6d6d"> <path d="m537.62 896.01-6.3e-4 0.0027q-0.00293 0.00805-0.01551 0.01196-0.01296 0.00414-0.0299 0.00219-0.01599-0.00195-0.02526-0.00879-0.0032-0.00196-0.0049-0.00466l-0.0017-0.0024q-0.0011-0.0027-0.0011-0.0054 8.5e-4 -0.0083 0.0123-0.0132 0.0115-0.0051 0.0281-0.0041 0.017 9.6e-4 0.0276 0.00706 0.011 0.0061 0.011 0.01464"/> <path d="m545.23 896.91-0.06495 0.5383q-0.34475 1.6196-1.6506 2.5322-1.3146 0.91162-3.0157 0.63596-1.6198-0.3447-2.5324-1.6506-0.9117-1.3142-0.6361-3.0156 0.34474-1.6194 1.6504-2.5325 1.3145-0.9114 3.016-0.636 1.6194 0.34473 2.5323 1.6506 0.29226 0.42186 0.47022 0.91066l0.14464 0.5005q0.1138 0.51487 0.0862 1.0664"/> </g> <g fill="#ff4000"> <path d="m588.78 911.82-0.17395 0.47926q-1.0819 3.2151-2.3732 4.3567-0.4031 0.43579-1.6533 0.83325-0.90832 0.2532-2.7407 0.3147l3.234 5.3335 7.685-1.4072-0.33947-8.2007-3.6384-1.7095"/> </g> <g fill="#5787b2"> <path d="m277.77 1171.5 53.085-55.691 53.085-55.69q10.09 22.014 20.179 44.029l-61.128 59.975q-21.076 23.946-42.151 47.892l-23.07-40.516"/> </g> <g fill="#3a6974"> <path d="m547.94 1094.4-1.9728 2.3677-17.718 21.403q-5.443 5.9759-8.3928 8.3523-10.703 8.8225-20.111 11.11-7.7502 2.2122-16.52 0.9107-1.421-0.054-8.8796-2.0592-19.53-6.3565-20.797-6.376-1.506-0.551-8.3767-1.3125-8.2754-1.0046-25.52 2.9202l-1.9474-55.351q13.837-4.4978 21.852-4.5352 7.8197-0.4316 25.652 3.1287l27.47-21.976 55.261 41.418z"/> </g> <g fill-opacity=".99608"> <path d="m622.31 895.4 0.6025-0.11985q6.3626-1.289 13.414 2.096 7.1167 2.9504 12.472 9.459 9.3115 13.226 4.076 27.979-4.1052 12.18-14.619 18.632-4.598 2.5779-10.685 3.5041-7.0587 1.125-19.904 0.93824l-7.2232 4.5808 21.866-67.069z"/> </g> <g fill="#ffb298"> <path d="m596.22 966.88v0.00245 0.0022l-0.00123-0.00365 8.4447-7.0286 3.6286-1.9817c-1.4669-2.6572-2.1132-5.0603-1.8086-7.1921 0.2854-1.998 1.3214-4.0181 3.1074-5.9653 1.5213-1.6582 2.7975-2.6304 3.6625-3.1091 0.5607-0.31079 1.0958-0.65943 1.6748-0.91528 3.7017-1.6358 5.6282-2.5302 5.7556-2.742 0.9104-0.4802 1.9519-1.2839 2.6662-2.6794 1.64-3.2042 1.3156-5.4545-0.37704-6.6896-0.4458-0.32496-1.2956-0.5591-2.6649-0.7151-0.4657-0.053-2.6175 0.1211-6.5021 0.56055-0.94676 0.10715-1.4362-0.09275-1.2927-0.40625 0.27456-0.5989 0.78149-1.065 1.339-1.512 4.0515-3.2495 6.7702-5.5054 8.1315-6.7881 2.4976-2.354 3.7858-3.8772 4.1721-4.3362 2.2296-2.6482 3.746-5.8963 3.3977-9.9048-0.5116-5.8933-2.8961-9.355-6.2434-10.488-6.6274 1.3076-10.795 2.5171-12.617 3.404-2.0208 0.9834-3.6102 2.5752-4.6627 5.0054-8.1814-0.39256-12.838-0.0078-14.244 0.65725-1.7374 0.82175-1.748 2.6446 0.18457 5.9924-2.7316 0.88694-3.2521 0.4021-3.8159 0.946-0.17995 0.1736 1.0177 1.8069 0.92955 3.5176-0.09105 1.7686-1.4634 3.6187-1.3884 3.918-1.1953 0.21384-4.1492-0.73514-5.3453-1.295-0.7223-0.33789-0.1049 0.51585-1.6412 2.8486-2.6604 1.2895-4.4986 2.4309-5.3618 3.5478-0.83483 1.0803-1.0974 1.9981-0.94677 2.6377-0.10216 1.1455 0.81504 3.4114 2.7511 6.7981l5.3264 4.5086-7.7858 14.411 21.527 14.995v0.00245-0.00245z"/> </g> <g fill-opacity=".99608"> <path d="m611.76 913.74 0.1306-0.37475q0.90945-2.4566 0.87625-3.9636-0.01065-0.334-0.06435-0.65554-0.0061-0.16676-0.2389-0.94116-0.25144-0.76954-0.94565-2.0838 0.31275 2.2473 0.34165 3.6045 0.0514 1.3156-0.0996 4.4143z"/> <path d="m605.32 913.19-8.3e-4 9.6e-4 -6.1e-4 2.6e-4 0.00144-0.00122z"/> </g> <g fill="#fff" fill-opacity=".99608"> <path d="m608.88 912.55v5e-4l1.352-4.4617q-0.8308-0.38524-1.3382-0.364-0.4906-0.0171-1.6556 0.37744l1.6418 4.4478z"/> </g> <g fill-opacity=".99608"> <path d="m610.26 908.11-1.3722 1.2458-1.5738-1.1633q0.5942-0.3342 0.9155-0.45384 0.3201-0.11086 0.3816-0.11306 0.1254-0.0249 0.24854-0.02855 0.12232-0.00315 0.24256 0.0149 0.06115-0.00145 0.35485 0.09255 0.29225 0.1023 0.80298 0.4055z"/> </g> <g fill="#3a6974"> <path d="m529.9 1104.1-1.4465 1.1438q-20.618 16.941-39.977 15.86-9.8413-1.0881-14.522-3.4409-3.03-1.2219-6.1073-2.7061l-18.315-9.2469q-5.9554-2.8484-11.402-4.2854-8.3378-2.6211-25.341-1.8489l8.4456-54.737q24.614 0.6416 46.928 7.5082l31.097-16.446 30.64 68.2z"/> </g> <g fill="#fff"> <path d="m600.44 968.65 0.7941-1.372c2.025-3.5117 3.5348-5.6118 4.4166-6.428 0.24635-0.2278 0.0664-0.5342-0.33434-0.89746-0.3385-0.3064-2.3958-1.374-6.2575-3.1167l-23.187-10.236-4.3658 6.6408-20.489 10.728c-14.303 7.6575-15.866 26.01-22.597 24.141l-13.964 11.403 1.4273-14.607c-8.7228 12.185-14.335 21.188-17.204 26.828-2.7888 5.4807-6.4979 15.517-11.606 30.011-1.1683 3.3139-2.3318 4.9026-2.6622 5.0969-2.417 3.9024-6.8062 3.8518-13.167-0.1513 8.2417 18.966 16.377 31.861 23.808 39.299 6.8676 6.8734 19.469 14.278 38.419 21.615 8.8077-23.64 16.997-42.403 24.566-56.288l7.9951-13.114 20.909-29.308c3.3978-5.3269 5.1487-8.5093 5.5779-9.4165 4.3093-9.1104 7.0547-19.336 7.9205-30.829z"/> </g> <g fill="#98d8ff" fill-opacity=".99608"> <path d="m600.84 964.48-33.585-12.317q-43.488 16.549-55.413 27.026-10.126 8.638-11.157 10.863-3.0846 3.9395-5.6506 8.0852-8.4954 14.646-12.766 19.94-5.5345 7.3626-14.802 11.747-9.7932 4.0558-23.069 5.1991-7.0137 0.8664-39.156 1.9651-5.953 0.3584-10.862 1.1335-14.15 2.5928-19.819 8.8545-5.6691 6.2621-8.5111 13.747l23.769 54.247 24.552-17.034 138.16 0.2774q44.629-83.411 51.284-103.8 9.4494-24.191-2.9696-29.935"/> </g> <g fill="#62b3b1" fill-opacity=".99608"> <path d="m531.18 779.54v5e-4 5e-4 -5e-4 -5e-4 5e-4 5e-4q0-5e-4 0-1e-3"/> </g> <g fill-opacity=".99608"> <path d="m649.58 895.53-8.3e-4 -2e-4 8.3e-4 2e-4 -8.3e-4 -2e-4z"/> </g> <g fill="#3c464f"> <path d="m588.41 995.47c-8.6781 11.495-6.3997 27.86 5.0954 36.537l17.391 0.0013 27.591-59.539c-11.495-8.6863-27.852-6.4082-36.538 5.0869l-13.539 17.913z"/> </g> <g> <path d="m481.72 1144-26.086 4e-4 6e-5 80.258 26.086 6e-4 -5e-5 -80.259zm0 0-26.086 4e-4 6e-5 80.258 26.086 6e-4 -5e-5 -80.259zm0 0-26.086 4e-4 6e-5 80.258 26.086 6e-4 -5e-5 -80.259zm0 0-26.086 4e-4 6e-5 80.258 26.086 6e-4 -5e-5 -80.259z"/> <path d="m487.93 1220.4-40.115 4e-4 1.2e-4 75.369h40.115l-1.9e-4 -75.369zm0 0-40.115 4e-4 1.2e-4 75.369h40.115l-1.9e-4 -75.369zm0 0-40.115 4e-4 1.2e-4 75.369h40.115l-1.9e-4 -75.369zm0 0-40.115 4e-4 1.2e-4 75.369h40.115l-1.9e-4 -75.369z"/> </g> <g fill="#3c464f"> <path d="m432 1058.4 115.29 5e-4v-26.086l-89.206 8e-4c-14.409-0.0012-26.086 11.676-26.086 26.085z"/> </g> <g> <path d="m403.74 1099.7 13.043 5e-4v-19.566c1.2e-4 -8.3902 6.8273-15.216 15.217-15.217l156.79 0.0013v-13.044l-156.79 0.0012c-15.582-0.0012-28.26 12.676-28.26 28.259v19.565l8.7e-4 0.0013z"/> </g> <g fill="#3c464f"> <path d="m527.09 1115.6 2e-4 21.382c0 8.6169-7.0524 15.669-15.669 15.669l-85.493 6e-4c-8.6168-0.0012-15.669-7.053-15.669-15.669l1.2e-4 -21.383 116.83 7e-4z"/> </g> <g> <path d="m274.01 1226.3 92.676-122.69c4.322-5.7209 13.73-10.408 20.904-10.409l159.7 0.0012 91.197-120.71c2.8436-3.7566 7.3478-6.1914 12.426-6.1914 8.6082 7e-4 15.582 6.9738 15.582 15.582 0 3.5212-1.1822 6.7739-3.1563 9.3827l-100.54 133.1-172.74 0.0015-91.198 120.71c-2.8437 3.7561-7.3481 6.1912-12.426 6.1912-8.6083 0-15.582-6.9744-15.582-15.582 1.9e-4 -3.5306 1.1825-6.774 3.1567-9.3829z"/> </g> <g fill="#3c464f"> <path d="m372.89 1288.3c0 0.0046 189.97 0.0051 189.97 0.0051 0-0.0046 11.13-0.0046 11.13-0.0046l5e-5 37.102c0 3.0743-2.492 5.5655-5.5655 5.5655-3.0738 0-5.5656-2.4912-5.5656-5.5655l-5e-5 -14.837-189.97 8e-4v14.836c0 3.0739-2.4919 5.5659-5.5656 5.5651-3.0736 0-5.5656-2.4912-5.5656-5.5651v-37.103l11.132 0.0012z"/> <path d="m415.99 1174 104.07 1e-3q7e-5 33.87 7e-5 67.739-52.034 8e-4 -104.07 0.0012 0-33.871 0-67.741"/> </g> <g fill-opacity=".99608"> <path d="m287.41 1157.4-1.2854-0.1326q-8.9959-0.9455-12.861-3.2239-2.2833-1.1626-4.3196-2.7719-1.1646-0.9146-2.321-1.9429-7.4047-6.8711-7.8114-6.9846-2.7822-2.1509-4.6433-2.4551-2.2564-0.7505-5.093 2.3196-2.3635 3.2038-2.1952 8.157 0.0293 5.5595 6.963 14.332 0.58234 0.7969 3.9916 4.7844l23.366 27.032q2.5008 3.6453 3.9784 5.2708 3.3038 3.5378 5.7399 3.5441 2.9688 0.3814 7.3559-3.4094 2.7111-1.9343 12.103-13.439l-14.656-3.7659-8.3124-27.314z"/> </g> <g fill-opacity=".22353"> <path d="m910.64 1319.6-3.6099 2.7548q-25.665 8.325-150.19 13.316-125.39 4.9869-295.31 4.0438-162.17-1.3176-259.39-7.7107-31.153-2.0668-51.321-4.503l-16.951-2.5054q-13.969-2.5855-14.126-5.3963 4.2405-8.6264 115.83-14.355 111.58-5.7277 279.63-5.9449 168.04 0.2179 279.63 5.9466 111.58 5.7285 115.82 14.354"/> </g> <g fill="#7cd0e3"> <path d="m678.16 765.34c-1.3932-6.0141-5.4565-10.421-11.762-12.758-4.2006-1.5525-14.432-2.9739-18.937 2.3198-14.52-8.6082-22.177-3.9224-27.328 1.6072-11.368 12.206-6.1706 24.505-1.3124 29.846 3.5121 3.8675 4.5275 6.1035 5.0962 8.6572 0.12807 0.56177 0.41737 2.2214 0.43177 2.5769 0.89306 21.266 8.1436 23.09 9.8774 23.218 0.50536 0.1455 1.0031 0.2124 1.4849 0.2124 0.88354 2.6e-4 1.7207-0.23514 2.4804-0.70117 3.6022-2.2058 4.7135-9.0767 5.6902-15.127 0.3551-2.1892 0.6864-4.2561 1.0736-5.4585 0.67151-2.0816 1.2261-2.5562 1.221-2.6284 0.48314 0.21535 1.2982 1.7732 1.3877 2.3872 0.1338 0.91699 0.2297 2.1047 0.337 3.4358 0.5547 6.8306 1.3817 17.131 8.6463 17.879 0.51564 0.1106 1.7414 0.22487 3.2466-0.6838 3.4246-2.0782 5.9612-8.0318 7.5327-17.698l0.23594-1.5459c0.5664-3.8742 1.3501-9.185 4.551-12.55 3.699-3.8601 8.1642-13.844 6.0467-22.988zm-8.1915 20.938c-3.8561 4.052-4.7543 10.142-5.3428 14.178l-0.2274 1.4966c-1.8106 11.119-4.5014 14.474-5.94 15.488-0.76014 0.53515-1.2347 0.4597-1.1825 0.48046l-0.33754-0.06786c-4.868-0.42555-5.5825-9.2852-6.0525-15.158-0.11655-1.4089-0.2181-2.6638-0.3574-3.6335-0.1427-0.9788-1.5276-4.7112-4.0751-4.9243-2.7392-0.18433-3.9298 3.4668-4.3202 4.6836-0.4574 1.4238-0.79404 3.4931-1.182 5.8984-0.74633 4.6055-1.8714 11.57-4.3087 13.066-0.3281 0.2041-0.81956 0.41306-1.7047 0.12766l-0.45007-0.07006-0.03903 7e-4c-0.0741-7e-4 -6.287-0.7529-7.1127-20.376-0.02893-0.68433-0.3889-2.6148-0.49695-3.104-0.78245-3.4988-2.3526-6.2132-5.7992-10.005-1.1541-1.2639-10.888-12.736 1.2882-25.806 5.5943-6.0061 13.847-10.072 32.584 5.3218 0.63795 0.52004 1.572 0.4329 2.0997-0.2048 0.52416-0.63747 0.43116-1.5708-0.20384-2.0994-2.4011-1.9668-4.6544-3.6396-6.7682-5.0398 3.4541-3.4668 11.603-2.522 15.332-1.1384 5.4008 1.9983 8.728 5.5728 9.8942 10.631 1.7773 7.7128-1.9311 16.725-5.2974 20.256z"/> </g> <g fill="#fff"> <path d="m657.28 817.97c-0.0049 9.5e-4 -6e-3 0.00144-0.0049 0.00144 1e-3 0 0.0032-2.4e-4 0.0061-0.00144z"/> <path d="m657.3 818.03c-0.00954 0.0027-0.017 0.00367-0.0198 0.00367-0.0038 0-3.6e-4 -0.00171 0.01575-0.00342l2.5e-4 -2.5e-4h0.00146zm-24.052-64.963c-4.9059-0.00123-8.2747 2.4819-10.999 5.4077-12.244 13.144-2.4475 24.692-1.2892 25.961l3.5e-4 2.5e-4c3.4384 3.782 4.9951 6.479 5.7718 9.9522 0.10813 0.49024 0.46617 2.4109 0.4946 3.0837v-2.4e-4c0.81934 19.47 6.9452 20.463 7.2142 20.485v2.5e-4c0.00376 0 0.00659 4.9e-4 0.01236 4.9e-4l0.00144 4.6e-4 0.02956-9.5e-4 0.43577 0.06785-0.00197 2.6e-4c0.3152 0.10059 0.58534 0.14134 0.81984 0.14134 0.44176 0 0.74436-0.1445 0.96886-0.2839v2e-4c2.491-1.5295 3.618-8.5564 4.3582-13.124v2.4e-4c0.00173-0.01004 0.00207-0.01221 0.00343-0.02197 0.3888-2.4087 0.724-4.468 1.1782-5.8816v2e-4c0.39185-1.2214 1.5146-4.6123 4.0133-4.6113 0.06263 0 0.1261 0.00194 0.1907 0.00634l2e-4 4.6e-4c2.4525 0.2068 3.8262 3.845 3.9695 4.8267v2.3e-4c0.13405 0.93357 0.2334 2.1353 0.3451 3.4902l0.0111 0.13598v-4.9e-4l0.0015 0.01464v-2.3e-4c0.46446 5.8015 1.1687 14.81 6.1529 15.248l-0.00233 2.4e-4 0.312 0.062-0.0022 5e-4c0.0077 0.0034 0.01407 0.00586 0.0169 0.00635l0.00205 4.9e-4c0-9.8e-4 -0.00255-0.00244-0.0083-0.00514l0.00219 2.6e-4 0.00696 9.7e-4c0.00745 0.00171 0.0149 0.00217 0.02234 0.00217 0.01331 0 0.02612-0.00217 0.03821-0.00656l-0.00195 2.6e-4c0.1306-0.00905 0.579-0.0491 1.212-0.49465v4.9e-4c1.4782-1.0422 4.1752-4.4389 5.9867-15.564l3e-4 -0.0012 0.22763-1.4961v-7e-4c0.58937-4.0418 1.4854-10.094 5.3121-14.116 3.3893-3.5547 7.1131-12.605 5.3261-20.36-1.1757-5.1006-4.5336-8.7024-9.9657-10.712-1.839-0.68236-4.739-1.2571-7.6271-1.2576-3.0043-1e-3 -6.0294 0.6201-7.8252 2.4224-0.0243 0.02444-0.0361 0.05784-0.0327 0.09204 0.00353 0.0342 0.02184 0.0647 0.0505 0.084 2.1101 1.3974 4.3599 3.0676 6.7587 5.0327v2.4e-4c0.5868 0.48853 0.67175 1.3501 0.1881 1.938v4.7e-4c-0.2745 0.33156-0.6677 0.5017-1.0646 0.5015-0.30737 0-0.61683-0.10255-0.87439-0.3125v5e-4c-9.6516-7.9295-16.545-10.719-21.741-10.719z"/> </g> <g fill="#1a4a6e"> <path d="m587.64 724.65 115.68-0.2827c0.68444-0.00174 1.2407 0.5517 1.2424 1.236l0.2956 120.72c0.00145 0.68484-0.552 1.2408-1.2365 1.2425l-115.68 0.28369c-0.32875 9.5e-4 -0.64455-0.12891-0.87733-0.36085-0.23317-0.2319-0.36437-0.54687-0.36524-0.8755l-0.29559-120.72c-8.4e-4 -0.3286 0.1289-0.644 0.36086-0.8772 0.23203-0.2329 0.547-0.36424 0.8756-0.3652m0.0061 2.479 1.2361-1.2424 0.2956 120.72-1.2425-1.2366 115.68-0.28344-1.2365 1.2424-0.29554-120.72 1.2424 1.2366-115.68 0.28297z"/> </g> <g fill="#e0faff"> <path d="m633.11 750.36c3.8314 0 8.4881 1.3049 14.244 4.7175l0.25636-0.0427c2.3469-2.7576 6.3086-3.6672 10.17-3.6675 3.3639 0 6.6085 0.69094 8.544 1.4063h-2.6e-4c6.2492 2.3152 10.26 6.6731 11.636 12.615 2.0998 9.0662-2.335 18.983-5.9959 22.803l-2e-4 5e-4c-3.2532 3.4197-4.0403 8.8-4.6044 12.659l-0.2361 1.545c-1.5725 9.6731-4.102 15.532-7.4378 17.556-0.97205 0.58644-1.8154 0.72824-2.41 0.72824-0.2948 0-0.53136-0.0356-0.6898-0.06955l-0.0215-0.00342c-7.0489-0.72483-7.9012-10.741-8.4637-17.667v2.5e-4l-0.0022-0.02686c-0.10717-1.3293-0.20361-2.5237-0.3385-3.4485-0.09241-0.63281-0.91067-2.252-1.486-2.5312l-0.0554-0.0176-0.01405-0.0022-0.22791 0.1499h-0.00954c-0.00596 0.0088-0.014 0.02005-0.02464 0.0347h2.4e-4c-0.1771 0.24756-0.64477 0.9072-1.1827 2.5747-0.38467 1.1943-0.71424 3.2285-1.0598 5.3591v4.6e-4c-0.00952 0.05984-0.01245 0.0767-0.01245 0.0767-0.00195 0.0117-0.0049 0.02855-0.00854 0.0515v2.4e-4c-0.98496 6.103-2.0932 12.843-5.5963 14.988h-2.4e-4c-0.7272 0.44607-1.5276 0.67117-2.3733 0.67117h-0.0017c-0.46313 0-0.9419-0.06423-1.4288-0.20437l-0.04102-0.00733c-1.5772-0.11694-8.7993-1.7954-9.6909-23.026v2e-4c-0.01523-0.37474-0.30833-2.0495-0.4364-2.6125-0.57813-2.596-1.6151-4.8633-5.1438-8.749v-4.8e-4c-4.8132-5.2906-9.9629-17.468 1.3107-29.572 3.0832-3.3101 7.0449-6.2886 12.833-6.2886zm68.971-23.719-113.2 0.27906-0.20094 0.20215 0.2896 118.24c2.7e-4 0.1111 0.0905 0.2014 0.20156 0.2014h2.4e-4c0.0104 0 0.0204-9.6e-4 0.0304-0.0024h-0.0134l113.18-0.2752 0.20115-0.20163v-0.00217-7.6e-4l-0.28945-118.24-0.2021-0.20096z"/> </g> <g fill="#1a4a6e"> <path d="m645.14 1105.5 122.13-0.1556c0.68469-0.0012 1.2403 0.5527 1.2411 1.2378l0.2715 212.22c8.6e-4 0.6843-0.5531 1.2399-1.2376 1.2407l-122.13 0.1567c-0.3287 5e-4 -0.64414-0.1299-0.8769-0.3618-0.2326-0.2319-0.3638-0.5471-0.36404-0.8762l-0.27176-212.22c-4e-4 -0.3283 0.12973-0.6442 0.3619-0.8767 0.2323-0.2331 0.54725-0.364 0.87586-0.364m0.00324 2.4787 1.2378-1.2414 0.27179 212.22-1.2411-1.2381 122.13-0.1567-1.2379 1.2407-0.2717-212.22 1.2409 1.2378-122.13 0.1558z"/> </g> <g fill="#e0faff"> <path d="m766.03 1107.5-119.61 0.1548c-0.01206-0.0018-0.02415-0.0025-0.0365-0.0025-0.1616 0-0.29246 0.1309-0.29246 0.2923v0.0029l0.26856 209.74c0 0.1613 0.13086 0.2922 0.2925 0.2922 0.0123 0 0.02464-0.0012 0.03696-0.0022h-0.01406l119.63-0.1511c0.1614-5e-4 0.292-0.1314 0.292-0.2928v-0.0024l-0.2687-209.74c0-0.0774-0.03074-0.1521-0.0858-0.2068-0.0548-0.0549-0.1295-0.0854-0.207-0.0854z"/> </g> <g fill="#1a4a6e"> <path d="m657.16 1123.2 100.02-0.1274c0.6847-8e-4 1.2402 0.5535 1.2411 1.2378l0.04295 33.736c8.5e-4 0.6843-0.5531 1.2402-1.2378 1.2407l-100.02 0.1286c-0.32874 4e-4 -0.64417-0.1299-0.87671-0.3619-0.23291-0.2324-0.36376-0.5471-0.36436-0.8762l-0.043-33.736c-5e-4 -0.3288 0.12977-0.6442 0.36207-0.8767 0.23193-0.2331 0.54713-0.364 0.87583-0.3645m0.0032 2.479 1.2379-1.2412 0.043 33.737-1.2411-1.238 100.02-0.1283-1.2377 1.2407-0.0433-33.735 1.2411 1.2378-100.02 0.1274z"/> </g> <g fill="#57a4b3"> <path d="m755.95 1125.4-97.513 0.127c-0.00867-0.0017-0.01733-0.0022-0.0261-0.0022-0.08193 0-0.14846 0.0659-0.14846 0.1479v0.0025l0.01516 0.0149h-2.7e-4l-0.01489-0.0149 0.03979 31.258c2.7e-4 0.082 0.06653 0.1482 0.14867 0.1482 0.0089 0 0.01784-0.0012 0.02614-0.0024h-0.0144l97.528-0.1227 0.14804-0.1487v-0.0022l-0.03994-31.257-0.14866-0.1482z"/> </g> </g> </svg>